<svg xmlns="http://www.w3.org/2000/svg" version="1.1" xmlns:xlink="http://www.w3.org/1999/xlink" xmlns:svgjs="http://svgjs.dev/svgjs" width="1000" height="285" viewBox="0 0 1000 285"><g transform="matrix(1,0,0,1,-0.6060604361195487,0.038851010270974484)"><svg viewBox="0 0 396 113" data-background-color="#c8c8c8" preserveAspectRatio="xMidYMid meet" height="285" width="1000" xmlns="http://www.w3.org/2000/svg" xmlns:xlink="http://www.w3.org/1999/xlink"><g id="tight-bounds" transform="matrix(1,0,0,1,0.2400000672967053,-0.015404084774104376)"><svg viewBox="0 0 395.52 113.03080816954818" height="113.03080816954818" width="395.52"><g><svg viewBox="0 0 578.5797084915679 165.3451963018394" height="113.03080816954818" width="395.52"><g transform="matrix(1,0,0,1,0,22.851615407851902)"><svg viewBox="0 0 395.5199999999999 119.64196548613559" height="119.64196548613559" width="395.5199999999999"><g><svg viewBox="0 0 395.5199999999999 119.64196548613559" height="119.64196548613559" width="395.5199999999999"><g><svg viewBox="0 0 395.5199999999999 75.03732776617953" height="75.03732776617953" width="395.5199999999999"><g transform="matrix(1,0,0,1,0,0)"><svg width="395.5199999999999" viewBox="3.1500000953674316 -35.79999923706055 191.5800018310547 36.349998474121094" height="75.03732776617953" data-palette-color="#000000"><path d="M24.15-9.25Q24.15-4.2 21.08-1.83 18 0.55 13.7 0.55L13.7 0.55Q11 0.55 8.6-0.43 6.2-1.4 4.67-3.6 3.15-5.8 3.15-9.25L3.15-9.25 3.15-25.35Q3.15-30.5 5.98-33.15 8.8-35.8 13.75-35.8L13.75-35.8Q18.7-35.8 21.43-33 24.15-30.2 24.15-25.3L24.15-25.3 24.15-9.25ZM21.4-25.8Q21.4-29.45 19.28-31.3 17.15-33.15 13.65-33.15L13.65-33.15Q10.15-33.15 8.05-31.3 5.95-29.45 5.95-25.8L5.95-25.8 5.95-9.3Q5.95-5.75 8.13-3.93 10.3-2.1 13.65-2.1L13.65-2.1Q17.05-2.1 19.23-3.88 21.4-5.65 21.4-9.35L21.4-9.35 21.4-25.8ZM49.4-35.05L52.2-35.05 52.2-9.3Q52.2-4.25 49.12-1.95 46.05 0.35 41.7 0.35L41.7 0.35Q37.35 0.35 34.25-1.95 31.15-4.25 31.15-9.3L31.15-9.3 31.15-35.05 33.95-35.05 33.95-8.9Q33.95-5.85 36.17-4 38.4-2.15 41.65-2.15L41.65-2.15Q44.9-2.15 47.15-4 49.4-5.85 49.4-8.9L49.4-8.9 49.4-35.05ZM64.25 0L64.25-32.5 55.75-32.5 55.75-35 75.84-35 75.84-32.5 67.05-32.5 67.05 0 64.25 0ZM79.74 0L79.74-35 92.04-35Q96.79-35 99.12-32.1 101.44-29.2 101.44-24.3L101.44-24.3Q101.44-21.15 100.94-18.63 100.44-16.1 98.44-14.18 96.44-12.25 92.39-12.25L92.39-12.25 82.54-12.25 82.54 0 79.74 0ZM92.44-15Q95.24-15 96.62-16.5 97.99-18 98.32-19.9 98.64-21.8 98.64-24.15L98.64-24.15Q98.64-28.25 96.94-30.3 95.24-32.35 92.24-32.35L92.24-32.35 82.54-32.35 82.54-15 92.44-15ZM125.04-35.05L127.84-35.05 127.84-9.3Q127.84-4.25 124.77-1.95 121.69 0.35 117.34 0.35L117.34 0.35Q112.99 0.35 109.89-1.95 106.79-4.25 106.79-9.3L106.79-9.3 106.79-35.05 109.59-35.05 109.59-8.9Q109.59-5.85 111.81-4 114.04-2.15 117.29-2.15L117.29-2.15Q120.54-2.15 122.79-4 125.04-5.85 125.04-8.9L125.04-8.9 125.04-35.05ZM139.89 0L139.89-32.5 131.39-32.5 131.39-35 151.49-35 151.49-32.5 142.69-32.5 142.69 0 139.89 0ZM159.99 0L159.99-32.5 151.49-32.5 151.49-35 171.59-35 171.59-32.5 162.79-32.5 162.79 0 159.99 0ZM194.73-9.25Q194.73-4.2 191.66-1.83 188.58 0.55 184.28 0.55L184.28 0.55Q181.58 0.55 179.18-0.43 176.78-1.4 175.26-3.6 173.73-5.8 173.73-9.25L173.73-9.25 173.73-25.35Q173.73-30.5 176.56-33.15 179.38-35.8 184.33-35.8L184.33-35.8Q189.28-35.8 192.01-33 194.73-30.2 194.73-25.3L194.73-25.3 194.73-9.25ZM191.98-25.8Q191.98-29.45 189.86-31.3 187.73-33.15 184.23-33.15L184.23-33.15Q180.73-33.15 178.63-31.3 176.53-29.45 176.53-25.8L176.53-25.8 176.53-9.3Q176.53-5.75 178.71-3.93 180.88-2.1 184.23-2.1L184.23-2.1Q187.63-2.1 189.81-3.88 191.98-5.65 191.98-9.35L191.98-9.35 191.98-25.8Z" opacity="1" transform="matrix(1,0,0,1,0,0)" fill="#000000" class="undefined-text-0" data-fill-palette-color="primary" id="text-0"></path></svg></g></svg></g><g transform="matrix(1,0,0,1,163.31020799999996,92.75183995590812)"><svg viewBox="0 0 232.20979199999996 26.89012553022746" height="26.89012553022746" width="232.20979199999996"><g transform="matrix(1,0,0,1,0,0)"><svg width="232.20979199999996" viewBox="2.25 -35.099998474121094 411.010009765625 47.599998474121094" height="26.89012553022746" data-palette-color="#000000"><path d="M27.4 0L24.1-9.25 8.7-9.25 5.5 0 2.25 0 14.9-35 17.95-35 31.05 0 27.4 0ZM16.25-31.2L9.55-11.75 23.2-11.75 16.25-31.2ZM45.75-2.4L45.75 0 36.35 0 36.35-2.4 39.35-2.75 39.35-32.2 36.6-32.55 36.6-35 45.5-35 45.5-32.55 42.75-32.2 42.75-2.75 45.75-2.4ZM78.09-2.4L78.09 0 68.69 0 68.69-2.4 71.69-2.75 71.69-32.2 68.94-32.55 68.94-35 77.84-35 77.84-32.55 75.09-32.2 75.09-2.75 78.09-2.4ZM93.64-22.25L93.64-22.25Q90.84-22.1 87.59-20.4L87.59-20.4 87.59 0 84.34 0 84.34-25 87.59-25.25 87.59-22.45Q90.94-25 94.09-25.15L94.09-25.15Q99.39-25.15 101.39-22.5L101.39-22.5Q105.19-25 108.74-25.15L108.74-25.15Q111.79-25.15 113.44-24.4 115.09-23.65 116.17-22.28 117.24-20.9 117.24-18.4L117.24-18.4 117.24 0 113.99 0 113.99-17.55Q113.99-19.4 113.14-20.4L113.14-20.4Q111.59-22.25 108.74-22.25L108.74-22.25Q105.74-22.25 102.34-20.45L102.34-20.45Q102.59-19.45 102.59-18.4L102.59-18.4 102.59 0 99.34 0 99.34-17.55Q99.34-19.4 98.54-20.4L98.54-20.4Q96.94-22.25 93.64-22.25ZM124.19-19.9L123.29-22.3Q128.74-25 132.84-25.15L132.84-25.15Q136.09-25.15 137.86-24.33 139.64-23.5 140.74-22.03 141.84-20.55 141.84-17.9L141.84-17.9 141.84 0 138.59 0 138.59-1.9Q131.74 0.2 129.79 0.2L129.79 0.2Q129.69 0.2 129.64 0.2L129.64 0.2Q125.14 0.2 123.49-2.55L123.49-2.55Q122.89-3.55 122.81-4.5 122.74-5.45 122.74-6.1L122.74-6.1Q122.74-7.9 124.14-9.33 125.54-10.75 127.49-11.25L127.49-11.25Q130.79-12.1 138.59-12.75L138.59-12.75 138.59-16.8Q138.59-22.25 132.89-22.25L132.89-22.25Q128.89-22.25 124.19-19.9L124.19-19.9ZM125.79-5.7L125.79-5.7Q125.79-2.1 130.74-2.1L130.74-2.1Q134.69-2.1 138.59-3.8L138.59-3.8 138.59-10.95Q130.79-9.85 128.94-9.25L128.94-9.25Q125.79-8.25 125.79-5.7ZM149.94-9.65L149.94-9.65Q146.24-11.5 146.24-16.6L146.24-16.6Q146.24-20.8 149.14-23 152.04-25.2 156.54-25.2L156.54-25.2Q157.74-25.2 159.49-24.95L159.49-24.95 168.89-25.2 168.79-23.3 163.34-23.3Q166.09-21.25 166.09-17.13 166.09-13 163.34-10.78 160.59-8.55 156.24-8.55L156.24-8.55Q153.44-8.55 151.59-9.05L151.59-9.05Q150.64-8.15 150.64-6.95L150.64-6.95Q150.64-5.25 152.51-4.5 154.39-3.75 156.94-3.4L156.94-3.4Q162.59-2.65 165.09-1.3L165.09-1.3Q168.69 0.7 168.69 4.85 168.69 9 164.74 11L164.74 11Q161.74 12.5 157.49 12.5 153.24 12.5 150.94 11.85L150.94 11.85Q144.89 10.1 144.89 5.35 144.89 0.6 150.24-2.7L150.24-2.7Q148.14-4.25 148.14-6.3 148.14-8.35 149.94-9.65ZM165.44 4.8L165.44 4.8Q165.44 1.55 161.14 0.3L161.14 0.3Q159.94-0.05 156.84-0.55 153.74-1.05 151.99-1.75L151.99-1.75Q148.14 1.45 148.14 4.45L148.14 4.45Q148.14 5.75 148.54 6.6 148.94 7.45 149.94 8.1L149.94 8.1Q152.14 9.6 156.64 9.6L156.64 9.6Q162.54 9.6 164.64 7.1L164.64 7.1Q165.44 6.15 165.44 4.8ZM162.69-17.25L162.69-17.25Q162.69-22.55 156.39-22.55L156.39-22.55Q153.39-22.55 151.44-21.18 149.49-19.8 149.49-16.98 149.49-14.15 150.89-12.68 152.29-11.2 155.61-11.2 158.94-11.2 160.81-12.8 162.69-14.4 162.69-17.25ZM174.23-12.3L174.23-11.5Q174.23-2.7 182.63-2.7L182.63-2.7Q186.18-2.7 189.13-3.65L189.13-3.65Q189.88-3.9 190.18-4.05L190.18-4.05 190.93-1.4Q189.18-0.35 184.58 0.1L184.58 0.1Q183.28 0.2 181.83 0.2L181.83 0.2Q177.63 0.2 174.83-1.9L174.83-1.9Q170.98-4.75 170.98-11.4 170.98-18.05 174.46-21.63 177.93-25.2 182.88-25.2 187.83-25.2 190.33-22L190.33-22Q192.23-19.45 192.23-15.25L192.23-15.25Q192.23-14.25 192.13-13.15L192.13-13.15 174.28-13.15Q174.23-12.75 174.23-12.3L174.23-12.3ZM183.08-22.1L183.08-22.1Q179.98-22.1 177.78-20.23 175.58-18.35 174.73-15.4L174.73-15.4 189.28-15.4Q189.03-20.95 184.98-21.85L184.98-21.85Q184.08-22.1 183.08-22.1ZM236.68-32.35L235.38-30.1Q234.08-31.4 230.68-32.05L230.68-32.05Q229.43-32.3 227.43-32.3 225.43-32.3 223.2-31.35 220.98-30.4 219.28-28.4L219.28-28.4Q215.63-24 215.63-16 215.63-8 219.28-4.8L219.28-4.8Q221.78-2.55 225.9-2.55 230.03-2.55 233.83-3.6L233.83-3.6 234.08-15.5 236.83-15.5 236.83-2Q234.63-0.6 228.88 0L228.88 0Q227.28 0.2 225.5 0.2 223.73 0.2 221.33-0.38 218.93-0.95 216.88-2.7L216.88-2.7Q212.23-6.65 212.23-15.85 212.23-25.05 216.63-30.08 221.03-35.1 227.98-35.1L227.98-35.1 229.58-35Q232.73-34.7 234.4-33.85 236.08-33 236.68-32.35L236.68-32.35ZM245.18-12.3L245.18-11.5Q245.18-2.7 253.58-2.7L253.58-2.7Q257.13-2.7 260.08-3.65L260.08-3.65Q260.83-3.9 261.13-4.05L261.13-4.05 261.88-1.4Q260.13-0.35 255.53 0.1L255.53 0.1Q254.23 0.2 252.78 0.2L252.78 0.2Q248.58 0.2 245.78-1.9L245.78-1.9Q241.93-4.75 241.93-11.4 241.93-18.05 245.4-21.63 248.88-25.2 253.83-25.2 258.78-25.2 261.28-22L261.28-22Q263.18-19.45 263.18-15.25L263.18-15.25Q263.18-14.25 263.08-13.15L263.08-13.15 245.23-13.15Q245.18-12.75 245.18-12.3L245.18-12.3ZM254.03-22.1L254.03-22.1Q250.93-22.1 248.73-20.23 246.53-18.35 245.68-15.4L245.68-15.4 260.23-15.4Q259.98-20.95 255.93-21.85L255.93-21.85Q255.03-22.1 254.03-22.1ZM270.72-25.25L270.72-22.25Q274.47-25 277.82-25.15L277.82-25.15Q280.87-25.15 282.52-24.4 284.17-23.65 285.25-22.28 286.32-20.9 286.32-18.4L286.32-18.4 286.32 0 283.07 0 283.07-17.55Q283.07-19.4 282.27-20.4L282.27-20.4Q280.67-22.25 277.37-22.25L277.37-22.25Q274.22-22.1 270.72-20.2L270.72-20.2 270.72 0 267.47 0 267.47-25 270.72-25.25ZM295.32-12.3L295.32-11.5Q295.32-2.7 303.72-2.7L303.72-2.7Q307.27-2.7 310.22-3.65L310.22-3.65Q310.97-3.9 311.27-4.05L311.27-4.05 312.02-1.4Q310.27-0.35 305.67 0.1L305.67 0.1Q304.37 0.2 302.92 0.2L302.92 0.2Q298.72 0.2 295.92-1.9L295.92-1.9Q292.07-4.75 292.07-11.4 292.07-18.05 295.55-21.63 299.02-25.2 303.97-25.2 308.92-25.2 311.42-22L311.42-22Q313.32-19.45 313.32-15.25L313.32-15.25Q313.32-14.25 313.22-13.15L313.22-13.15 295.37-13.15Q295.32-12.75 295.32-12.3L295.32-12.3ZM304.17-22.1L304.17-22.1Q301.07-22.1 298.87-20.23 296.67-18.35 295.82-15.4L295.82-15.4 310.37-15.4Q310.12-20.95 306.07-21.85L306.07-21.85Q305.17-22.1 304.17-22.1ZM331.97-24.5L330.67-21.5Q329.87-21.95 328.97-21.95 328.07-21.95 327.97-21.9L327.97-21.9Q326.07-21.9 324.14-20.53 322.22-19.15 320.87-17.45L320.87-17.45 320.87 0 317.62 0 317.62-25 320.87-25.25 320.87-19.65Q322.72-22 324.02-22.95L324.02-22.95Q326.42-24.75 328.62-24.85L328.62-24.85Q328.92-24.9 329.72-24.9 330.52-24.9 331.97-24.5L331.97-24.5ZM335.17-19.9L334.27-22.3Q339.72-25 343.82-25.15L343.82-25.15Q347.07-25.15 348.84-24.33 350.62-23.5 351.72-22.03 352.82-20.55 352.82-17.9L352.82-17.9 352.82 0 349.57 0 349.57-1.9Q342.72 0.2 340.77 0.2L340.77 0.2Q340.67 0.2 340.62 0.2L340.62 0.2Q336.12 0.2 334.47-2.55L334.47-2.55Q333.87-3.55 333.79-4.5 333.72-5.45 333.72-6.1L333.72-6.1Q333.72-7.9 335.12-9.33 336.52-10.75 338.47-11.25L338.47-11.25Q341.77-12.1 349.57-12.75L349.57-12.75 349.57-16.8Q349.57-22.25 343.87-22.25L343.87-22.25Q339.87-22.25 335.17-19.9L335.17-19.9ZM336.77-5.7L336.77-5.7Q336.77-2.1 341.72-2.1L341.72-2.1Q345.67-2.1 349.57-3.8L349.57-3.8 349.57-10.95Q341.77-9.85 339.92-9.25L339.92-9.25Q336.77-8.25 336.77-5.7ZM368.16-3.6L368.76-0.9Q367.86 0 365.51 0L365.51 0Q362.21 0 361.06-1.7L361.06-1.7Q359.11-3.55 359.11-6.7L359.11-6.7 359.11-22.1 356.31-22.1 356.76-25 359.11-25 359.11-29.95 362.36-30.25 362.36-25 368.16-25 368.16-22.1 362.36-22.1 362.36-5.9Q362.36-3 365.36-3L365.36-3Q366.66-3 368.16-3.6L368.16-3.6ZM372.01-6.4L372.01-6.4Q371.11-8.8 371.11-12L371.11-12Q371.11-18.15 374.56-21.68 378.01-25.2 383.21-25.2L383.21-25.2Q391.36-25.2 393.91-18.6L393.91-18.6Q394.86-16.2 394.86-13L394.86-13Q394.86-6.85 391.41-3.33 387.96 0.2 382.76 0.2L382.76 0.2Q374.61 0.2 372.01-6.4ZM374.36-12.35Q374.36-7.75 376.74-5.23 379.11-2.7 382.86-2.7 386.61-2.7 389.11-5.38 391.61-8.05 391.61-12.65 391.61-17.25 389.26-19.78 386.91-22.3 383.14-22.3 379.36-22.3 376.86-19.63 374.36-16.95 374.36-12.35ZM413.26-24.5L411.96-21.5Q411.16-21.95 410.26-21.95 409.36-21.95 409.26-21.9L409.26-21.9Q407.36-21.9 405.43-20.53 403.51-19.15 402.16-17.45L402.16-17.45 402.16 0 398.91 0 398.91-25 402.16-25.25 402.16-19.65Q404.01-22 405.31-22.95L405.31-22.95Q407.71-24.75 409.91-24.85L409.91-24.85Q410.21-24.9 411.01-24.9 411.81-24.9 413.26-24.5L413.26-24.5Z" opacity="1" transform="matrix(1,0,0,1,0,0)" fill="#000000" class="undefined-text-1" data-fill-palette-color="secondary" id="text-1"></path></svg></g></svg></g></svg></g></svg></g><g transform="matrix(1,0,0,1,413.23451218972855,0)"><svg viewBox="0 0 165.3451963018394 165.3451963018394" height="165.3451963018394" width="165.3451963018394"><g data-palette-color="#000000"><rect width="45.1943536558361" height="165.3451963018394" fill="#000000" stroke="transparent" data-fill-palette-color="accent" x="0" fill-opacity="1"></rect><rect width="45.1943536558361" height="165.3451963018394" fill="#000000" stroke="transparent" data-fill-palette-color="accent" x="55.11506543394647" fill-opacity="0.75"></rect><rect width="45.1943536558361" height="165.3451963018394" fill="#000000" stroke="transparent" data-fill-palette-color="accent" x="110.23013086789294" fill-opacity="0.5"></rect></g></svg></g></svg></g><defs></defs></svg><rect width="395.52" height="113.03080816954818" fill="none" stroke="none" visibility="hidden"></rect></g></svg></g></svg>